<?xml version="1.0" standalone="no"?><!DOCTYPE svg PUBLIC "-//W3C//DTD SVG 1.1//EN" "http://www.w3.org/Graphics/SVG/1.1/DTD/svg11.dtd"><svg class="icon" width="32px" height="32.00px" viewBox="0 0 1024 1024" version="1.1" xmlns="http://www.w3.org/2000/svg"><path fill="#d81e06" d="M741.376 740.717714a33.792 33.792 0 0 1-48.493714 0l-182.930286-184.32-185.709714 183.588572a34.596571 34.596571 0 0 1-49.152 0 33.792 33.792 0 0 1 0-48.420572l186.368-184.32-176.128-176.128a33.792 33.792 0 0 1 0-48.493714 33.792 33.792 0 0 1 48.493714 0l176.128 176.786286 178.834286-176.786286a34.596571 34.596571 0 0 1 49.152 0 33.792 33.792 0 0 1 0 48.493714L558.445714 508.562286l182.272 183.661714a34.377143 34.377143 0 0 1 0.658286 48.493714M512 0C229.376 0 0 229.376 0 512s229.376 512 512 512 512-229.376 512-512-229.376-512-512-512"  /></svg>