<?xml version="1.0" standalone="no"?><!DOCTYPE svg PUBLIC "-//W3C//DTD SVG 1.1//EN" "http://www.w3.org/Graphics/SVG/1.1/DTD/svg11.dtd"><svg t="1743597067962" class="icon" viewBox="0 0 1024 1024" version="1.1" xmlns="http://www.w3.org/2000/svg" p-id="5503" xmlns:xlink="http://www.w3.org/1999/xlink" width="32" height="32"><path d="M512 32c-17.673 0-32 14.327-32 32v242.308c0 17.672 14.327 32 32 32s32-14.328 32-32V64c0-17.673-14.327-32-32-32zM349.865 381.44L140.021 260.288c-15.307-8.837-34.877-3.591-43.713 11.713-8.837 15.305-3.593 34.876 11.713 43.713l209.844 121.154a31.852 31.852 0 0 0 15.97 4.292c11.06 0 21.816-5.74 27.743-16.005 8.837-15.305 3.593-34.876-11.713-43.713zM317.865 587.133L108.021 708.287C92.715 717.124 87.47 736.695 96.308 752c5.927 10.267 16.682 16.005 27.743 16.005 5.428 0 10.93-1.383 15.97-4.292l209.844-121.154c15.306-8.837 20.55-28.408 11.713-43.713-8.837-15.304-28.406-20.55-43.713-11.713zM512 685.692c-17.673 0-32 14.328-32 32V960c0 17.673 14.327 32 32 32s32-14.327 32-32V717.692c0-17.672-14.327-32-32-32zM915.98 708.287L706.134 587.133c-15.306-8.836-34.877-3.591-43.713 11.713-8.837 15.305-3.593 34.876 11.713 43.713L883.98 763.713a31.852 31.852 0 0 0 15.97 4.292c11.059 0 21.816-5.74 27.742-16.005 8.837-15.305 3.593-34.876-11.713-43.713zM690.165 441.16c5.428 0 10.93-1.384 15.97-4.293L915.98 315.713c15.305-8.837 20.55-28.408 11.712-43.713-8.837-15.305-28.407-20.55-43.712-11.713L674.135 381.441c-15.306 8.837-20.55 28.408-11.713 43.713 5.928 10.266 16.682 16.005 27.743 16.005z" p-id="5504"></path></svg>